# xmcd
#
# Track frame offsets: 
#        150
#        17210
#        39320
#        51363
#        69544
#        87475
#        104404
#        123908
#        146423
#        165527
#        186138
#
# Disc length: 2775 seconds
#
# Revision: 0
# Processed by: cddbd v1.5.2PL0 Copyright (c) Steve Scherf et al.
# Submitted via: ExactAudioCopy v0.99pb5
#
DISCID=940ad50b
DTITLE=Aaron Parrett and Ivan Rosenberg - Stumbo Lost Wages
DYEAR=2009
DGENRE=Acoustic
TTITLE0=Hard Luck Gambler
TTITLE1=Ehlo Kyuurhi
TTITLE2=Never Close the Door
TTITLE3=El Cuchillo
TTITLE4=Lincoln County Love Song
TTITLE5=When I Was a Mountain
TTITLE6=Nothing Like the Wind
TTITLE7=Cold as Georgia Clay
TTITLE8=Stumbo Lost Wages
TTITLE9=Texas
TTITLE10=Dixieland Dew
EXTD=
EXTT0=
EXTT1=
EXTT2=
EXTT3=
EXTT4=
EXTT5=
EXTT6=
EXTT7=
EXTT8=
EXTT9=
EXTT10=
PLAYORDER=
